<svg width="814" height="551" viewBox="0 0 814 551" fill="none" xmlns="http://www.w3.org/2000/svg">
<rect width="814" height="551" fill="#E5E5E5"/>
<rect width="814" height="551" fill="white"/>
<ellipse cx="277.5" cy="212.5" rx="160.5" ry="53.5" fill="#C466D4"/>
<path d="M215.696 234V188.56H220.176V230.032H246.416V234H215.696ZM283.537 230.032V234H253.009V188.56H282.961V192.528H257.489V208.912H279.697V212.688H257.489V230.032H283.537ZM296.489 196.88V234H292.009V188.56H295.465L325.545 226.384V188.624H330.025V234H326.121L296.489 196.88ZM341.446 234V188.624H345.926V214.992L370.95 188.56H375.878L357.318 208.528L376.838 234H371.91L354.502 211.152L345.926 220.048V234H341.446ZM396.651 188.56H400.427L419.307 234H414.571L408.683 219.792H388.267L382.443 234H377.643L396.651 188.56ZM407.659 216.272L398.507 193.808L389.227 216.272H407.659Z" fill="#FCFCFC"/>
<ellipse cx="170.049" cy="211.832" rx="39.7875" ry="30.4906" transform="rotate(0.493513 170.049 211.832)" fill="white"/>
</svg>
