<svg width="271" height="53" viewBox="0 0 271 53" fill="none" xmlns="http://www.w3.org/2000/svg">
<rect width="271" height="53" fill="#E5E5E5"/>
<ellipse cx="128.5" cy="38.5" rx="128.5" ry="14.5" fill="#9103B4"/>
<path d="M83.272 38V3.92H86.632V35.024H106.312V38H83.272ZM142.792 35.024V38H119.896V3.92H142.36V6.896H123.256V19.184H139.912V22.016H123.256V35.024H142.792ZM161.146 10.16V38H157.786V3.92H160.378L182.938 32.288V3.968H186.298V38H183.37L161.146 10.16ZM203.504 38V3.968H206.864V23.744L225.632 3.92H229.328L215.408 18.896L230.048 38H226.352L213.296 20.864L206.864 27.536V38H203.504ZM253.548 3.92H256.38L270.54 38H266.988L262.572 27.344H247.26L242.892 38H239.292L253.548 3.92ZM261.804 24.704L254.94 7.856L247.98 24.704H261.804Z" fill="white"/>
<circle cx="63" cy="21" r="21" fill="white"/>
</svg>
